<svg xmlns="http://www.w3.org/2000/svg" width="480" height="160" viewBox="0 0 480 160">
  <defs>
    <linearGradient id="madeira" x1="0" y1="0" x2="0" y2="1">
      <stop offset="0" stop-color="#d9bf99"/>
      <stop offset="1" stop-color="#c1a173"/>
    </linearGradient>
    <filter id="sombra" x="-25%" y="-25%" width="160%" height="170%">
      <feDropShadow dx="10" dy="12" stdDeviation="8" flood-color="#2a2118" flood-opacity="0.3"/>
    </filter>
  </defs>
  <g filter="url(#sombra)">
    <rect x="10" y="10" width="460" height="140" rx="8" fill="url(#madeira)" stroke="#a98c62" stroke-width="3"/>
  </g>
  <!-- Divisórias -->
  <g fill="#a98c62">
    <rect x="120" y="14" width="7" height="132"/>
    <rect x="236" y="14" width="7" height="132"/>
    <rect x="352" y="14" width="7" height="132"/>
  </g>
  <!-- Compartimento 1: pastas arquivo -->
  <g>
    <rect x="26" y="26" width="20" height="108" rx="3" fill="#8b9dab"/>
    <rect x="50" y="26" width="20" height="108" rx="3" fill="#a4b2bd"/>
    <rect x="74" y="30" width="20" height="104" rx="3" fill="#7d8f9d"/>
    <g stroke="#5f707d" stroke-width="3"><line x1="36" y1="44" x2="36" y2="60"/><line x1="60" y1="44" x2="60" y2="60"/><line x1="84" y1="48" x2="84" y2="64"/></g>
  </g>
  <!-- Compartimento 2: caixas de papelão -->
  <g>
    <rect x="136" y="34" width="44" height="44" rx="4" fill="#cfb187" stroke="#ab8d60" stroke-width="2"/>
    <rect x="155" y="34" width="7" height="44" fill="#ab8d60" opacity="0.6"/>
    <rect x="146" y="86" width="52" height="52" rx="4" fill="#c3a273" stroke="#ab8d60" stroke-width="2" transform="rotate(-5 172 112)"/>
    <rect x="188" y="40" width="36" height="36" rx="4" fill="#d8bd93" stroke="#ab8d60" stroke-width="2" transform="rotate(8 206 58)"/>
  </g>
  <!-- Compartimento 3: livros/fichários empilhados -->
  <g>
    <rect x="252" y="28" width="88" height="18" rx="3" fill="#93a58f"/>
    <rect x="258" y="50" width="76" height="18" rx="3" fill="#a8b7a4"/>
    <rect x="252" y="72" width="82" height="18" rx="3" fill="#7f917b"/>
    <rect x="252" y="72" width="82" height="18" rx="3" fill="#7f917b"/>
    <rect x="264" y="94" width="66 " height="18" rx="3" fill="#b7c2b3"/>
    <rect x="256" y="116" width="80" height="18" rx="3" fill="#8ba087"/>
  </g>
  <!-- Compartimento 4: equipamento e caixa -->
  <g>
    <rect x="368" y="28" width="88" height="40" rx="5" fill="#9aa3ad" stroke="#7c8791" stroke-width="2"/>
    <rect x="380" y="38" width="64" height="8" rx="3" fill="#7c8791"/>
    <rect x="374" y="80" width="54" height="54" rx="4" fill="#cfb187" stroke="#ab8d60" stroke-width="2" transform="rotate(6 401 107)"/>
  </g>
</svg>
